PathFileType	4	(X/Y/Z)	C:\Users\Basilio\Documents\Thesis Gigler\squatting_fais\c3dfiles\041\SJ_pre5\markers_experimental.trc
DataRate	CameraRate	NumFrames	NumMarkers	Units	OrigDataRate	OrigDataStartFrame	OrigNumFrames
200.000000	200.000000	4	62	mm	200.000000	376	1505
Frame#	Time	FHD			LBHD			RBHD			C7			T10			CLAV			LSHO			LUUPA			LMUPA			LDUPA			LLEP			LMEP			LRAD			LUL			LRFIN			RSHO			RUPA1			RMUPA			RDUPA			RLEP			RMEP			RRAD			RUL			RUFIN			LASI			RASI			USACR			LSACR			RSACR			LTHI1			LTHI2			LTHI3			LTHI4			LLFC			LMFC			LTIB1			LTIB2			LTIB3			LTIB4			LLMAL			LMMAL			LHEE			LMT1			LMT2			LMT5			RTHI			RTHI2			RTHI3			RTHI4			RLFC			RMFC			RTIB1			RTIB2			RTIB3			RTIB4			RLMAL			RMMAL			RHEE			RMT1			RMT2			RMT5			*61			
		X1	Y1	Z1	X2	Y2	Z2	X3	Y3	Z3	X4	Y4	Z4	X5	Y5	Z5	X6	Y6	Z6	X7	Y7	Z7	X8	Y8	Z8	X9	Y9	Z9	X10	Y10	Z10	X11	Y11	Z11	X12	Y12	Z12	X13	Y13	Z13	X14	Y14	Z14	X15	Y15	Z15	X16	Y16	Z16	X17	Y17	Z17	X18	Y18	Z18	X19	Y19	Z19	X20	Y20	Z20	X21	Y21	Z21	X22	Y22	Z22	X23	Y23	Z23	X24	Y24	Z24	X25	Y25	Z25	X26	Y26	Z26	X27	Y27	Z27	X28	Y28	Z28	X29	Y29	Z29	X30	Y30	Z30	X31	Y31	Z31	X32	Y32	Z32	X33	Y33	Z33	X34	Y34	Z34	X35	Y35	Z35	X36	Y36	Z36	X37	Y37	Z37	X38	Y38	Z38	X39	Y39	Z39	X40	Y40	Z40	X41	Y41	Z41	X42	Y42	Z42	X43	Y43	Z43	X44	Y44	Z44	X45	Y45	Z45	X46	Y46	Z46	X47	Y47	Z47	X48	Y48	Z48	X49	Y49	Z49	X50	Y50	Z50	X51	Y51	Z51	X52	Y52	Z52	X53	Y53	Z53	X54	Y54	Z54	X55	Y55	Z55	X56	Y56	Z56	X57	Y57	Z57	X58	Y58	Z58	X59	Y59	Z59	X60	Y60	Z60	X61	Y61	Z61	X62	Y62	Z62	

377	1.88	-279.9531250000001	1763.8330078125	-948.8839111328127	-436.2495422363282	1665.253051757813	-1032.76123046875	-424.6470336914064	1669.798706054688	-880.347839355469	-456.8534240722657	1517.248657226563	-967.447937011719	-464.9787902832032	1204.822509765625	-961.3909912109377	-292.4062500000001	1474.442626953125	-965.500183105469	-381.0578002929688	1518.34619140625	-1136.387573242188	-435.1428527832032	1379.049682617188	-1271.830810546875	-412.3005676269532	1335.005859375	-1270.702392578125	-457.6077575683595	1326.251220703125	-1310.904663085938	-467.7280883789064	1279.501953125	-1334.795288085938	-521.4199829101564	1240.561279296875	-1269.78515625	-376.5136718750001	1083.272338867188	-1172.457153320313	-364.8527526855469	1041.846923828125	-1233.354125976563	-328.3076171875001	1061.426025390625	-1136.2998046875	-374.2566223144532	1521.557739257813	-798.6560058593752	-426.5202636718751	1372.249145507813	-637.6958007812501	-382.1772766113282	1347.935180664063	-643.2011108398439	-405.1857910156251	1314.070556640625	-602.2620849609376	-397.4385070800782	1265.964477539063	-585.5172119140626	-471.6321716308595	1237.086547851563	-635.8888549804689	-377.7725219726563	1064.396850585938	-747.9816284179689	-337.5610656738282	1054.017700195313	-793.771911621094	-342.4222412109376	1024.742553710938	-692.2864379882814	-293.5897216796876	1008.984924316406	-1068.87744140625	-300.2834472656251	1002.446350097656	-856.000183105469	-474.3854370117189	1093.801879882813	-964.653991699219	-490.4781799316407	1069.119873046875	-992.101013183594	-492.3384094238282	1068.281494140625	-937.899108886719	-430.2403869628907	823.6918945312502	-1166.254150390625	-395.744354248047	746.6867065429689	-1175.618041992188	-347.8659057617188	748.3820800781251	-1166.474853515625	-425.0908508300782	692.9342651367189	-1169.681640625	-405.2590332031251	513.8828735351564	-1181.4365234375	-391.8990173339845	477.453826904297	-1067.71826171875	-374.1947021484376	316.8282470703126	-1158.565795898438	-423.9946289062501	284.2374572753907	-1226.674682617188	-386.9493408203126	276.3180847167969	-1201.929809570313	-386.691864013672	194.8048400878907	-1182.300048828125	-445.2131958007814	102.4890823364258	-1235.844360351563	-406.1802368164064	103.2712020874024	-1153.71826171875	-501.2663574218751	52.82617187500001	-1204.127685546875	-285.4774475097657	60.92685699462892	-1175.664794921875	-278.4526977539063	60.15512084960939	-1219.85693359375	-317.9433593750001	34.97579193115235	-1276.635620117188	-431.7251586914064	763.8371582031251	-762.9812622070314	-393.4889221191407	710.8287963867189	-751.6076049804689	-360.0896606445313	712.2855224609376	-753.7703857421876	-418.5826721191407	630.0679931640626	-762.7476806640626	-411.9918212890626	504.6530761718751	-748.5303344726564	-382.3653869628907	472.7637634277345	-860.9295043945315	-379.5683288574219	337.2024536132813	-733.5887451171876	-463.7605590820314	263.9293823242188	-716.5917358398439	-416.964080810547	261.1046752929688	-712.7632446289064	-393.2482910156251	209.9116363525391	-733.3095092773439	-451.1640930175782	95.18581390380861	-710.8462524414064	-416.1600952148439	102.9784698486328	-787.6917114257815	-502.4372863769532	50.05921936035158	-758.7753295898439	-284.5723876953126	53.12962341308595	-749.8936767578126	-286.2934570312501	57.45447921752931	-697.8834838867189	-332.8804016113282	36.18012619018555	-651.0103149414064	-4217.360839843751	853.2056274414065	-3944.675537109376	
378	1.885	-280.1852111816407	1763.965698242188	-949.0837402343752	-436.469451904297	1665.12646484375	-1032.625366210938	-424.6902770996095	1669.729736328125	-880.3690185546877	-456.9302673339845	1517.258422851563	-967.406188964844	-465.2828674316407	1204.867309570313	-961.3213500976565	-292.4355163574219	1474.434326171875	-965.5225830078127	-381.1265563964844	1518.36181640625	-1136.368530273438	-435.2857971191407	1379.087524414063	-1271.815673828125	-412.4419860839845	1335.052612304688	-1270.702026367188	-457.7477416992189	1326.265747070313	-1310.901489257813	-467.8697204589845	1279.505615234375	-1334.775390625	-521.5645751953126	1240.65966796875	-1269.855102539063	-376.8747253417969	1083.177734375	-1172.411376953125	-365.3192443847657	1041.889892578125	-1233.384643554688	-328.6171569824219	1061.407470703125	-1136.31005859375	-374.1818237304688	1521.536376953125	-798.613708496094	-426.4908752441407	1372.213256835938	-637.6621093750001	-382.1304016113282	1347.912353515625	-643.2210693359376	-405.1325683593751	1314.04833984375	-602.2615356445314	-397.4031982421876	1266.045654296875	-585.6670532226564	-471.6424255371095	1237.086669921875	-635.8612670898439	-378.1809387207032	1064.464477539063	-748.1443481445314	-337.3947143554688	1053.8955078125	-793.5952148437502	-342.6250305175782	1024.633544921875	-692.2723388671876	-293.7958984375001	1008.795959472656	-1068.960327148438	-300.4938049316407	1002.343872070313	-856.104919433594	-474.659393310547	1093.826904296875	-964.644958496094	-490.8068237304689	1069.100463867188	-992.0384521484377	-492.633026123047	1068.164672851563	-937.8549804687502	-430.5532836914064	823.6172485351565	-1166.152221679688	-396.0872802734376	746.6760864257814	-1175.563232421875	-348.1630554199219	748.4312133789064	-1166.5205078125	-425.2299804687501	692.8641967773439	-1169.613159179688	-405.2229614257814	513.8727416992189	-1181.4765625	-391.7319641113282	477.3211669921876	-1067.743286132813	-374.1035766601563	316.9017639160157	-1158.598754882813	-423.9169311523439	284.2570800781251	-1226.666259765625	-386.9023742675782	276.2750854492188	-1201.941650390625	-386.6464843750001	194.8022155761719	-1182.19580078125	-445.1750488281251	102.5094299316407	-1235.893676757813	-406.1314697265626	103.3085861206055	-1153.774780273438	-501.2637939453126	52.78713607788087	-1204.122802734375	-285.4307556152344	60.98990631103517	-1175.743408203125	-278.4586486816407	60.13695144653322	-1219.897094726563	-317.9427185058594	34.94901657104493	-1276.618896484375	-431.7453002929689	763.7279663085939	-762.9231567382814	-393.423797607422	710.7321166992189	-751.5294189453126	-360.0868835449219	712.2861328125001	-753.6821899414064	-418.4359436035157	630.0200805664064	-762.6365966796876	-411.6263732910157	504.556610107422	-748.4557495117189	-382.4299011230469	472.9102172851564	-860.9304809570315	-379.2475585937501	337.0995788574219	-733.5563354492189	-463.4914855957032	263.8898010253907	-716.5558471679689	-416.7305297851564	260.9947204589844	-712.7266845703126	-393.1527709960939	209.7545166015626	-733.3201293945314	-451.1319580078126	95.15697479248048	-710.8175659179689	-416.1367492675782	102.9674148559571	-787.6919555664065	-502.4733886718751	50.04223251342775	-758.7333984375001	-284.5957946777344	53.12156677246095	-749.8580932617189	-286.3255004882813	57.45294570922853	-697.8018188476564	-332.9266052246094	36.20296478271485	-651.0026855468751	-4216.644531250001	853.1486816406252	-3944.634765625001	
379	1.89	-280.4646911621094	1764.167724609375	-949.1308593750002	-436.6739501953126	1664.983032226563	-1032.605102539063	-424.9263610839845	1669.718994140625	-880.3886718750002	-457.019012451172	1517.206909179688	-967.3491821289065	-465.5367431640626	1204.90966796875	-961.3276367187502	-292.4868774414063	1474.323852539063	-965.4844360351565	-381.2596130371094	1518.338134765625	-1136.294921875	-435.4875488281251	1379.16552734375	-1271.794555664063	-412.5186462402345	1335.126220703125	-1270.679809570313	-457.9261169433595	1326.33544921875	-1310.839111328125	-468.5451660156251	1279.550537109375	-1334.427978515625	-521.8053588867189	1240.770751953125	-1269.85693359375	-377.1547546386719	1083.13037109375	-1172.417724609375	-365.7807617187501	1041.802856445313	-1233.292846679688	-328.2054443359376	1060.931030273438	-1136.295532226563	-374.1548767089844	1521.543701171875	-798.5948486328127	-426.4608764648439	1372.223510742188	-637.5800170898439	-382.1033935546876	1347.895263671875	-643.2322998046876	-404.9947814941407	1313.85791015625	-602.5392456054689	-397.390350341797	1265.936279296875	-585.4601440429689	-471.6719970703126	1237.14013671875	-635.7924194335939	-378.2797241210938	1064.392211914063	-748.1126708984376	-337.5087890625001	1053.805786132813	-793.5880126953127	-342.7996520996094	1024.596923828125	-692.3406982421876	-294.2255554199219	1008.761657714844	-1068.9794921875	-300.9343566894532	1002.359680175781	-856.103942871094	-474.9867553710939	1093.765502929688	-964.5765380859377	-491.135467529297	1069.110961914063	-991.955261230469	-493.0499572753907	1068.116821289063	-937.8201293945315	-430.9388427734376	823.5062255859377	-1165.983032226563	-396.3582763671876	746.6961669921876	-1175.519775390625	-348.3440551757813	748.4404296875001	-1166.484130859375	-425.497528076172	692.7332153320314	-1169.496215820313	-405.2620239257814	513.8598632812501	-1181.48583984375	-391.6650695800782	477.3181457519532	-1067.799926757813	-374.0759277343751	316.9042663574219	-1158.578735351563	-423.9716796875001	284.2374267578126	-1226.658569335938	-386.8500061035157	276.2901611328126	-1201.985595703125	-386.5517578125001	194.7766571044922	-1182.236938476563	-445.1557006835939	102.5232467651367	-1235.919921875	-406.1293945312501	103.3183135986328	-1153.780883789063	-501.2791748046876	52.80257034301759	-1204.129028320313	-285.4463806152344	61.03746032714845	-1175.689331054688	-278.4587707519532	60.17424392700197	-1219.871337890625	-317.8908081054688	34.99969482421876	-1276.635009765625	-431.801971435547	763.6245117187501	-762.8388061523439	-393.4151306152345	710.7224121093751	-751.4149780273439	-360.0436706542969	712.3156127929689	-753.5847167968751	-418.3298645019532	629.9113769531251	-762.4727172851564	-411.3258361816407	504.5382385253907	-748.2856445312501	-382.0806274414063	472.8890075683595	-860.7981567382815	-379.1166381835938	336.9819946289063	-733.4778442382814	-463.374725341797	263.8977355957032	-716.4476318359376	-416.5625000000001	260.9870605468751	-712.5980834960939	-392.903045654297	209.7081298828126	-733.2473754882814	-451.1434326171876	95.07979583740236	-710.8053588867189	-416.1347961425782	102.9551391601563	-787.6841430664065	-502.4689025878907	50.01491546630861	-758.7504882812501	-284.5716552734376	53.13002777099611	-749.9024047851564	-286.3421020507813	57.4769973754883	-697.9039306640626	-332.9049072265626	36.22974395751954	-651.0406494140626	-4216.801757812501	853.0957031250002	-3944.562011718751	
380	1.895	-280.7394409179688	1764.294311523438	-949.2512207031252	-436.8582763671876	1664.823974609375	-1032.560180664063	-425.0727539062501	1669.613159179688	-880.3186645507815	-457.0993041992189	1517.277954101563	-967.295104980469	-465.8278808593751	1204.9453125	-961.223083496094	-292.5008850097657	1474.370849609375	-965.502136230469	-381.3275451660157	1518.351440429688	-1136.3291015625	-435.6094970703126	1379.230834960938	-1271.769287109375	-412.6737365722657	1335.1748046875	-1270.699584960938	-458.0609741210939	1326.369873046875	-1310.832763671875	-468.1031799316407	1279.606811523438	-1334.734008789063	-522.0535888671876	1240.92724609375	-1269.911499023438	-377.5490417480469	1083.075561523438	-1172.328369140625	-366.1967468261719	1041.760009765625	-1233.180786132813	-328.5385437011719	1060.933227539063	-1136.283569335938	-374.1007080078126	1521.56787109375	-798.5518188476565	-426.4341735839845	1372.223999023438	-637.5598144531251	-382.0642700195313	1347.871215820313	-643.2205810546876	-404.9765014648439	1313.857177734375	-602.5347290039064	-397.4414062500001	1266.042358398438	-585.4867553710939	-471.7180175781251	1237.1806640625	-635.8087768554689	-378.3913879394532	1064.334106445313	-748.1437988281251	-337.6016235351563	1053.629760742188	-793.5689086914065	-342.9637451171876	1024.429443359375	-692.3571166992189	-294.5687561035157	1008.833557128906	-1068.941284179688	-301.2692260742188	1002.103698730469	-856.1746215820315	-475.412811279297	1093.8212890625	-964.493347167969	-491.4951477050782	1069.111206054688	-991.8831787109377	-493.287078857422	1068.093872070313	-937.7390747070315	-431.2648010253907	823.414978027344	-1165.858032226563	-396.6654663085939	746.7102661132814	-1175.524169921875	-348.6901245117188	748.5079956054689	-1166.456298828125	-426.0578918457032	692.7251586914064	-1169.960571289063	-405.2226867675782	513.8494873046876	-1181.492919921875	-391.6339416503907	477.3211669921876	-1067.812622070313	-373.9538269042969	316.9156799316407	-1158.570190429688	-423.9120483398439	284.2039184570313	-1226.675537109375	-386.8351440429689	276.5935668945313	-1201.90478515625	-386.5742492675782	194.7106933593751	-1182.13134765625	-445.1192016601564	102.4971313476563	-1235.945434570313	-406.0466308593751	103.217269897461	-1153.860717773438	-501.274871826172	52.83026504516603	-1204.146118164063	-285.4345092773438	60.96507263183595	-1175.737426757813	-278.4710998535157	60.19546127319337	-1219.851928710938	-317.9263000488282	34.99338531494141	-1276.6005859375	-431.8369750976564	763.4923706054689	-762.8536376953126	-393.4182739257814	710.6015625000001	-751.3490600585939	-360.0385742187501	712.3530883789064	-753.4305419921876	-418.1845703125001	629.8551635742189	-762.3887939453126	-410.8194885253907	504.4274902343751	-748.2415771484376	-381.7046203613282	472.8642578125001	-860.7176513671877	-378.8120422363282	336.8883666992188	-733.4428710937501	-463.0802612304689	263.8659973144532	-716.4509277343751	-416.4326477050782	260.9380798339844	-712.5017700195314	-392.748992919922	209.6433410644532	-733.2564086914064	-451.097381591797	95.10970306396486	-710.7521362304689	-416.1495971679689	102.9626083374024	-787.687927246094	-502.483367919922	50.03012466430665	-758.7429199218751	-284.5902709960938	53.14543533325197	-749.9132080078126	-286.3777770996094	57.500789642334	-697.8181152343751	-332.9205322265626	36.27026367187501	-651.0407104492189	-4217.437500000001	853.2473144531252	-3944.559814453126	
